<svg xmlns="http://www.w3.org/2000/svg" xmlns:xlink="http://www.w3.org/1999/xlink" viewBox="0 0 843.86 149.7" width="201" height="104"><defs><style>.cls-1{fill:none;}.cls-2{isolation:isolate;}.cls-3{opacity:0.15;mix-blend-mode:multiply;}.cls-4{clip-path:url(#clip-path);}.cls-5{fill:#a1a4a8;}.cls-6{fill:#a2a5a9;}.cls-7{fill:#a4a6aa;}.cls-8{fill:#a5a8ab;}.cls-9{fill:#a6a9ac;}.cls-10{fill:#a7aaad;}.cls-11{fill:#a9abae;}.cls-12{fill:#aaacaf;}.cls-13{fill:#abaeb0;}.cls-14{fill:#acafb0;}.cls-15{fill:#aeb0b1;}.cls-16{fill:#afb1b2;}.cls-17{fill:#b0b2b3;}.cls-18{fill:#b1b4b4;}.cls-19{fill:#b3b5b5;}.cls-20{fill:#b4b6b6;}.cls-21{fill:#b5b7b7;}.cls-22{fill:#b6b8b8;}.cls-23{fill:#b7b9b9;}.cls-24{fill:#b9bbba;}.cls-25{fill:#babcba;}.cls-26{fill:#bbbdbb;}.cls-27{fill:#bcbebc;}.cls-28{fill:#bdbfbd;}.cls-29{fill:#bfc0be;}.cls-30{fill:#c0c1bf;}.cls-31{fill:#c1c3c0;}.cls-32{fill:#c2c4c1;}.cls-33{fill:#c3c5c1;}.cls-34{fill:#c4c6c2;}.cls-35{fill:#c6c7c3;}.cls-36{fill:#c7c8c4;}.cls-37{fill:#c8c9c5;}.cls-38{fill:#c9cac6;}.cls-39{fill:#cacbc7;}.cls-40{fill:#cbccc7;}.cls-41{fill:#cccec8;}.cls-42{fill:#cdcfc9;}.cls-43{fill:#cfd0ca;}.cls-44{fill:#d0d1cb;}.cls-45{fill:#d1d2cc;}.cls-46{fill:#d2d3cc;}.cls-47{fill:#d3d4cd;}.cls-48{fill:#d4d5ce;}.cls-49{fill:#d5d6cf;}.cls-50{fill:#d6d7d0;}.cls-51{fill:#d7d8d0;}.cls-52{fill:#d8d9d1;}.cls-53{fill:#d9dad2;}.cls-54{fill:#dbdbd3;}.cls-55{fill:#dcdcd4;}.cls-56{fill:#ddddd4;}.cls-57{fill:#deded5;}.cls-58{fill:#dfdfd6;}.cls-59{fill:#e0e0d7;}.cls-60{fill:#e1e1d7;}.cls-61{fill:#e2e2d8;}.cls-62{fill:#e3e3d9;}.cls-63{fill:#e4e4da;}.cls-64{fill:#e5e5da;}.cls-65{fill:#e6e6db;}.cls-66{fill:#e7e7dc;}.cls-67{fill:#e8e8dd;}.cls-68{fill:#e9e8dd;}.cls-69{fill:#e9e9de;}.cls-70{fill:#eaeadf;}.cls-71{fill:#ebebdf;}.cls-72{fill:#ecece0;}.cls-73{fill:#edede1;}.cls-74{fill:#eeeee1;}.cls-75{fill:#efefe2;}.cls-76{fill:#f0efe3;}.cls-77{fill:#f1f0e3;}.cls-78{fill:#f2f1e4;}.cls-79{fill:#f2f2e5;}.cls-80{fill:#f3f3e5;}.cls-81{fill:#f4f3e6;}.cls-82{fill:#f5f4e6;}.cls-83{fill:#f6f5e7;}.cls-84{fill:#f6f6e8;}.cls-85{fill:#f7f7e8;}.cls-86{fill:#f8f7e9;}.cls-87{fill:#f9f8e9;}.cls-88{fill:#f9f9ea;}.cls-89{fill:#faf9ea;}.cls-90{fill:#fbfaeb;}.cls-91{fill:#fbfbeb;}.cls-92{fill:#fcfbec;}.cls-93{fill:#fdfcec;}.cls-94{fill:#fdfced;}.cls-95{fill:#fefded;}.cls-96{fill:#fffeee;}.cls-97{fill:#454b61;}.cls-98{fill:#fff;}.cls-100,.cls-101,.cls-102,.cls-99{fill:#f15a24;}.cls-101,.cls-102,.cls-99{stroke:#000;stroke-width:12px;}.cls-99{stroke-linecap:round;stroke-linejoin:round;}.cls-101{font-size:108.28px;}.cls-101,.cls-102{stroke-miterlimit:10;font-family:HaarlemDecoDEMO, Haarlem Deco DEMO;}.cls-102{font-size:109.26px;}.cls-103{opacity:0.68;}.cls-104{opacity:0.81;}</style><clipPath id="clip-path" transform="translate(-915.02 -1487.38)"><path class="cls-1" d="M952.17,1517s-12.74,1.56-16.95,2.66-2.45,5.79,2.42,6.86,15.89-1,18-5S952.17,1517,952.17,1517Z"/></clipPath></defs><g class="cls-2"><g id="Camada_1" data-name="Camada 1"><g class="cls-3"><g class="cls-4"><rect class="cls-5" x="16.01" y="29.61" width="26.74" height="10.58"/><path class="cls-5" d="M959.86,1514.89v9h5.26a49,49,0,0,1-37.42-3.51h1.23v-5.5Z" transform="translate(-915.02 -1487.38)"/><path class="cls-6" d="M959.86,1514.89v8.52H965a48.45,48.45,0,0,1-37-3.48h1v-5Z" transform="translate(-915.02 -1487.38)"/><path class="cls-7" d="M959.86,1514.89v8h5a47.87,47.87,0,0,1-36.63-3.44h.74v-4.58Z" transform="translate(-915.02 -1487.38)"/><path class="cls-8" d="M959.86,1514.89v7.53h4.81a47.43,47.43,0,0,1-36.24-3.41h.5v-4.12Z" transform="translate(-915.02 -1487.38)"/><path class="cls-9" d="M959.86,1514.89v7h4.65a46.83,46.83,0,0,1-35.84-3.37h.26v-3.66Z" transform="translate(-915.02 -1487.38)"/><path class="cls-10" d="M959.86,1514.89v6.53h4.5a46.38,46.38,0,0,1-35.45-3.32h0v-3.21Z" transform="translate(-915.02 -1487.38)"/><path class="cls-11" d="M959.86,1514.89v6h4.35A46,46,0,0,1,915,1506.07l13.91,8.82Z" transform="translate(-915.02 -1487.38)"/><path class="cls-12" d="M959.86,1514.89v5.54h4.19a45.53,45.53,0,0,1-48.63-14.68l13.51,9.14Z" transform="translate(-915.02 -1487.38)"/><path class="cls-13" d="M959.86,1514.89v5h4a45,45,0,0,1-48.08-14.52l13.11,9.47Z" transform="translate(-915.02 -1487.38)"/><path class="cls-14" d="M959.86,1514.89v4.55h3.89a44.5,44.5,0,0,1-47.53-14.35l12.71,9.8Z" transform="translate(-915.02 -1487.38)"/><path class="cls-15" d="M959.86,1514.89V1519h3.74a44,44,0,0,1-47-14.19l12.3,10.13Z" transform="translate(-915.02 -1487.38)"/><path class="cls-16" d="M959.86,1514.89v3.56h3.58a43.41,43.41,0,0,1-46.41-14l11.9,10.46Z" transform="translate(-915.02 -1487.38)"/><path class="cls-17" d="M959.86,1514.89V1518h3.43a42.79,42.79,0,0,1-32.68-3.07h29.25Z" transform="translate(-915.02 -1487.38)"/><path class="cls-18" d="M959.86,1514.89v2.57h3.28a42.22,42.22,0,0,1-32.29-3v.46Z" transform="translate(-915.02 -1487.38)"/><path class="cls-19" d="M959.86,1514.89V1517H963a41.75,41.75,0,0,1-31.89-3v.92Z" transform="translate(-915.02 -1487.38)"/><path class="cls-20" d="M959.86,1514.89v1.58h3a41.15,41.15,0,0,1-31.49-3v1.38Z" transform="translate(-915.02 -1487.38)"/><path class="cls-21" d="M959.86,1514.89V1516h2.82a40.66,40.66,0,0,1-31.1-2.92v1.84Z" transform="translate(-915.02 -1487.38)"/><path class="cls-22" d="M959.86,1514.89v.59h2.67a40.17,40.17,0,0,1-30.71-2.88v2.29Z" transform="translate(-915.02 -1487.38)"/><path class="cls-23" d="M959.86,1514.89v.09h2.51a39.64,39.64,0,0,1-30.3-2.84v2.75Z" transform="translate(-915.02 -1487.38)"/><path class="cls-24" d="M959.86,1514.89l2.36-.4a39.11,39.11,0,0,1-29.91-2.81v3.21Z" transform="translate(-915.02 -1487.38)"/><path class="cls-25" d="M959.86,1514.89l2.21-.9a38.62,38.62,0,0,1-29.52-2.77v3.67Z" transform="translate(-915.02 -1487.38)"/><path class="cls-26" d="M959.86,1514.89l2.06-1.39a38.14,38.14,0,0,1-29.13-2.74v4.13Z" transform="translate(-915.02 -1487.38)"/><path class="cls-27" d="M959.86,1514.89l1.9-1.89a37.58,37.58,0,0,1-28.73-2.7v4.59Z" transform="translate(-915.02 -1487.38)"/><path class="cls-28" d="M959.86,1514.89l1.75-2.38a37.11,37.11,0,0,1-28.33-2.66v5Z" transform="translate(-915.02 -1487.38)"/><path class="cls-29" d="M959.86,1514.89h0Z" transform="translate(-915.02 -1487.38)"/><path class="cls-30" d="M959.86,1514.89h0Z" transform="translate(-915.02 -1487.38)"/><path class="cls-31" d="M959.86,1514.89h0Z" transform="translate(-915.02 -1487.38)"/><path class="cls-32" d="M959.86,1514.89h0Z" transform="translate(-915.02 -1487.38)"/><path class="cls-33" d="M959.86,1514.89h0Z" transform="translate(-915.02 -1487.38)"/><path class="cls-34" d="M959.86,1514.89h0Z" transform="translate(-915.02 -1487.38)"/><path class="cls-35" d="M959.86,1514.89h0Z" transform="translate(-915.02 -1487.38)"/><path class="cls-36" d="M959.86,1514.89h0Z" transform="translate(-915.02 -1487.38)"/><path class="cls-37" d="M959.86,1514.89h0Z" transform="translate(-915.02 -1487.38)"/><path class="cls-38" d="M959.86,1514.89h0Z" transform="translate(-915.02 -1487.38)"/><path class="cls-39" d="M959.86,1514.89h0Z" transform="translate(-915.02 -1487.38)"/><path class="cls-40" d="M959.86,1514.89h0Z" transform="translate(-915.02 -1487.38)"/><path class="cls-41" d="M959.86,1514.89h0Z" transform="translate(-915.02 -1487.38)"/><path class="cls-42" d="M959.86,1514.89h0Z" transform="translate(-915.02 -1487.38)"/><path class="cls-43" d="M959.86,1514.89h0Z" transform="translate(-915.02 -1487.38)"/><path class="cls-44" d="M959.86,1514.89h0Z" transform="translate(-915.02 -1487.38)"/><path class="cls-45" d="M959.86,1514.89h0Z" transform="translate(-915.02 -1487.38)"/><path class="cls-46" d="M959.86,1514.89h0Z" transform="translate(-915.02 -1487.38)"/><path class="cls-47" d="M959.86,1514.89h0Z" transform="translate(-915.02 -1487.38)"/><path class="cls-48" d="M959.86,1514.89h0Z" transform="translate(-915.02 -1487.38)"/><path class="cls-49" d="M959.86,1514.89h0Z" transform="translate(-915.02 -1487.38)"/><path class="cls-50" d="M959.86,1514.89h0Z" transform="translate(-915.02 -1487.38)"/><path class="cls-51" d="M959.86,1514.89h0Z" transform="translate(-915.02 -1487.38)"/><path class="cls-52" d="M959.86,1514.89h0Z" transform="translate(-915.02 -1487.38)"/><path class="cls-53" d="M959.86,1514.89h0Z" transform="translate(-915.02 -1487.38)"/><path class="cls-54" d="M959.86,1514.89h0Z" transform="translate(-915.02 -1487.38)"/><path class="cls-55" d="M959.86,1514.89h0Z" transform="translate(-915.02 -1487.38)"/><path class="cls-56" d="M959.86,1514.89h0Z" transform="translate(-915.02 -1487.38)"/><path class="cls-57" d="M959.86,1514.89h0Z" transform="translate(-915.02 -1487.38)"/><path class="cls-58" d="M959.86,1514.89h0Z" transform="translate(-915.02 -1487.38)"/><path class="cls-59" d="M959.86,1514.89h0Z" transform="translate(-915.02 -1487.38)"/><path class="cls-60" d="M959.86,1514.89h0Z" transform="translate(-915.02 -1487.38)"/><path class="cls-61" d="M959.86,1514.89h0Z" transform="translate(-915.02 -1487.38)"/><path class="cls-62" d="M959.86,1514.89h0Z" transform="translate(-915.02 -1487.38)"/><path class="cls-63" d="M959.86,1514.89h0Z" transform="translate(-915.02 -1487.38)"/><path class="cls-64" d="M959.86,1514.89h0Z" transform="translate(-915.02 -1487.38)"/><path class="cls-65" d="M959.86,1514.89h0Z" transform="translate(-915.02 -1487.38)"/><path class="cls-66" d="M959.86,1514.89h0Z" transform="translate(-915.02 -1487.38)"/><path class="cls-67" d="M959.86,1514.89h0Z" transform="translate(-915.02 -1487.38)"/><path class="cls-68" d="M959.86,1514.89h0Z" transform="translate(-915.02 -1487.38)"/><path class="cls-69" d="M959.86,1514.89h0Z" transform="translate(-915.02 -1487.38)"/><path class="cls-70" d="M959.86,1514.89h0Z" transform="translate(-915.02 -1487.38)"/><path class="cls-71" d="M959.86,1514.89h0Z" transform="translate(-915.02 -1487.38)"/><path class="cls-72" d="M959.86,1514.89h0Z" transform="translate(-915.02 -1487.38)"/><path class="cls-73" d="M959.86,1514.89h0Z" transform="translate(-915.02 -1487.38)"/><path class="cls-74" d="M959.86,1514.89h0Z" transform="translate(-915.02 -1487.38)"/><path class="cls-75" d="M959.86,1514.89h0Z" transform="translate(-915.02 -1487.38)"/><path class="cls-76" d="M959.86,1514.89h0Z" transform="translate(-915.02 -1487.38)"/><path class="cls-77" d="M959.86,1514.89h0Z" transform="translate(-915.02 -1487.38)"/><path class="cls-78" d="M959.86,1514.89h0Z" transform="translate(-915.02 -1487.38)"/><path class="cls-79" d="M959.86,1514.89h0Z" transform="translate(-915.02 -1487.38)"/><path class="cls-80" d="M959.69,1514.89h0Z" transform="translate(-915.02 -1487.38)"/><path class="cls-81" d="M959.23,1514.89h0Z" transform="translate(-915.02 -1487.38)"/><path class="cls-82" d="M958.77,1514.89h0Z" transform="translate(-915.02 -1487.38)"/><path class="cls-83" d="M958.32,1514.89h0Z" transform="translate(-915.02 -1487.38)"/><path class="cls-84" d="M957.86,1514.89h0Z" transform="translate(-915.02 -1487.38)"/><path class="cls-85" d="M957.4,1514.89h0Z" transform="translate(-915.02 -1487.38)"/><path class="cls-86" d="M956.94,1514.89h0Z" transform="translate(-915.02 -1487.38)"/><path class="cls-87" d="M956.48,1514.89h0Z" transform="translate(-915.02 -1487.38)"/><path class="cls-88" d="M956,1514.89h0Z" transform="translate(-915.02 -1487.38)"/><path class="cls-89" d="M955.57,1514.89h0Z" transform="translate(-915.02 -1487.38)"/><path class="cls-90" d="M955.11,1514.89h0Z" transform="translate(-915.02 -1487.38)"/><path class="cls-91" d="M954.65,1514.89h0Z" transform="translate(-915.02 -1487.38)"/><path class="cls-92" d="M954.19,1514.89h0Z" transform="translate(-915.02 -1487.38)"/><path class="cls-93" d="M953.73,1514.89h0Z" transform="translate(-915.02 -1487.38)"/><path class="cls-94" d="M953.27,1514.89h0Z" transform="translate(-915.02 -1487.38)"/><path class="cls-95" d="M952.82,1514.89h0Z" transform="translate(-915.02 -1487.38)"/><path class="cls-95" d="M952.36,1514.89h0Z" transform="translate(-915.02 -1487.38)"/><path class="cls-96" d="M951.9,1514.89h0Z" transform="translate(-915.02 -1487.38)"/><path class="cls-96" d="M951.44,1514.89h0Z" transform="translate(-915.02 -1487.38)"/></g></g><path class="cls-97" d="M1214.29,1499l.14,0Z" transform="translate(-915.02 -1487.38)"/><path class="cls-97" d="M1226.66,1504.24l1.12.65C1227.42,1504.67,1227,1504.45,1226.66,1504.24Z" transform="translate(-915.02 -1487.38)"/><path class="cls-97" d="M1513.75,1499l.23-.07Z" transform="translate(-915.02 -1487.38)"/><path class="cls-97" d="M1540.18,1502.56h0Z" transform="translate(-915.02 -1487.38)"/><ellipse class="cls-98" cx="1597.24" cy="1550.56" rx="1.08" ry="2.25" transform="translate(-1212.47 -1105.39) rotate(-12.49)"/><path class="cls-99" d="M1079.28,1525.47l.31,55,22.46-.1,0,6.73-30.35.14-.35-61.75Z" transform="translate(-915.02 -1487.38)"/><path class="cls-99" d="M1123,1525.3l.35,61.74-7.88,0-.35-61.75Z" transform="translate(-915.02 -1487.38)"/><path class="cls-99" d="M1169.6,1524.84a29,29,0,0,1,3.9.25l0,7c-40.76-4-40.36,52.14.27,47.75l0,7.08C1125.55,1590.9,1120.5,1526.4,1169.6,1524.84Z" transform="translate(-915.02 -1487.38)"/><path class="cls-99" d="M1331.29,1522.5l.35,61.75-7.88,0-21.93-45.08.26,45.18-7.89,0-.35-61.75,7.89,0,21.92,45.08-.25-45.18Z" transform="translate(-915.02 -1487.38)"/><path class="cls-99" d="M1378.84,1522.5l.35,61.75-7.88,0-21.93-45.08.26,45.18-7.89,0-.35-61.75,7.89,0,21.92,45.08-.25-45.18Z" transform="translate(-915.02 -1487.38)"/><path class="cls-99" d="M1414.43,1522.18l0,6.73-22.46.1.18,32.78,18.57-.09,0,6.74-18.57.08,0,8.77,22.46-.1,0,6.73-30.35.14-.35-61.75Z" transform="translate(-915.02 -1487.38)"/><path class="cls-99" d="M1448.29,1522a28.9,28.9,0,0,1,3.89.24l0,6.77c-41-3.5-40.55,50.11.27,46.22l0,6.85C1404.37,1586,1399.1,1523.45,1448.29,1522Z" transform="translate(-915.02 -1487.38)"/><path class="cls-99" d="M1474.58,1581.76l-7.89,0-.31-53.24-14.58.07,0-6.52,37-.16,0,6.51-14.58.07Z" transform="translate(-915.02 -1487.38)"/><path class="cls-99" d="M1500.42,1522.42l.35,61.74-7.89,0-.35-61.74Z" transform="translate(-915.02 -1487.38)"/><path class="cls-99" d="M1661.65,1523.63l.35,61.74-7.89,0-21.92-45.08.26,45.18-7.89,0-.35-61.74,7.89,0,21.92,45.08-.26-45.18Z" transform="translate(-915.02 -1487.38)"/><path class="cls-100" d="M1075.28,1525.47l.31,55,22.46-.1,0,6.73-30.35.14-.35-61.75Z" transform="translate(-915.02 -1487.38)"/><path class="cls-100" d="M1119,1525.3l.35,61.74-7.88,0-.35-61.75Z" transform="translate(-915.02 -1487.38)"/><path class="cls-100" d="M1165.6,1524.84a29,29,0,0,1,3.9.25l0,7c-40.76-4-40.36,52.14.27,47.75l0,7.08C1121.55,1590.9,1116.5,1526.4,1165.6,1524.84Z" transform="translate(-915.02 -1487.38)"/><path class="cls-100" d="M1327.29,1522.5l.35,61.75-7.88,0-21.93-45.08.26,45.18-7.89,0-.35-61.75,7.89,0,21.92,45.08-.25-45.18Z" transform="translate(-915.02 -1487.38)"/><path class="cls-100" d="M1374.84,1522.5l.35,61.75-7.88,0-21.93-45.08.26,45.18-7.89,0-.35-61.75,7.89,0,21.92,45.08-.25-45.18Z" transform="translate(-915.02 -1487.38)"/><path class="cls-100" d="M1410.43,1522.18l0,6.73-22.46.1.18,32.78,18.57-.09,0,6.74-18.57.08,0,8.77,22.46-.1,0,6.73-30.35.14-.35-61.75Z" transform="translate(-915.02 -1487.38)"/><path class="cls-100" d="M1444.29,1522a28.9,28.9,0,0,1,3.89.24l0,6.77c-41-3.5-40.55,50.11.27,46.22l0,6.85C1400.37,1586,1395.1,1523.45,1444.29,1522Z" transform="translate(-915.02 -1487.38)"/><path class="cls-100" d="M1470.58,1581.76l-7.89,0-.31-53.24-14.58.07,0-6.52,37-.16,0,6.51-14.58.07Z" transform="translate(-915.02 -1487.38)"/><path class="cls-100" d="M1496.42,1522.42l.35,61.74-7.89,0-.35-61.74Z" transform="translate(-915.02 -1487.38)"/><path class="cls-100" d="M1657.65,1523.63l.35,61.74-7.89,0-21.92-45.08.26,45.18-7.89,0-.35-61.74,7.89,0,21.92,45.08-.26-45.18Z" transform="translate(-915.02 -1487.38)"/><path d="M1234.62,1491.7c-32-1.46-59.16,23-60.68,54.74s23.17,58.56,55.16,60,59.15-23,60.68-54.74S1266.6,1493.16,1234.62,1491.7Zm-4.42,91.89a34.56,34.56,0,1,1,36.5-32.93A34.61,34.61,0,0,1,1230.2,1583.59Z" transform="translate(-915.02 -1487.38)"/><path d="M1231.79,1608.08c-.91,0-1.83,0-2.76-.07a59.29,59.29,0,0,1-41.24-19.17,58.2,58.2,0,0,1-15.43-42.47c1.56-32.5,29.54-57.71,62.33-56.23a59.31,59.31,0,0,1,41.24,19.17,58.22,58.22,0,0,1,15.42,42.48C1289.84,1583.37,1263.39,1608.08,1231.79,1608.08Zm.13-114.88c-29.92,0-55,23.4-56.41,53.32a55.15,55.15,0,0,0,14.61,40.21,56.14,56.14,0,0,0,39.05,18.16c.88,0,1.75.06,2.62.06,29.93,0,55-23.4,56.41-53.31a55.07,55.07,0,0,0-14.61-40.22,56.14,56.14,0,0,0-39-18.16h0C1233.67,1493.22,1232.79,1493.2,1231.92,1493.2Zm-.1,92c-.56,0-1.13,0-1.69,0a36.26,36.26,0,0,1-25.24-11.74,35.59,35.59,0,0,1-9.45-26,36.57,36.57,0,0,1,63.39-22.68,35.61,35.61,0,0,1,9.44,26A36.42,36.42,0,0,1,1231.82,1585.19Zm.08-69.1a33.27,33.27,0,0,0-33.3,31.48,32.47,32.47,0,0,0,8.62,23.74,33.4,33.4,0,0,0,57.9-20.72,32.58,32.58,0,0,0-8.62-23.75,33.17,33.17,0,0,0-23.06-10.71C1232.93,1516.1,1232.41,1516.09,1231.9,1516.09Z" transform="translate(-915.02 -1487.38)"/><path class="cls-97" d="M1232.67,1496.3c-28.94-1.35-53.52,21.26-54.9,50.48s21,54,49.91,55.36,53.51-21.27,54.89-50.49S1261.6,1497.64,1232.67,1496.3Zm-4,84.75a31.87,31.87,0,1,1,33-30.37A31.69,31.69,0,0,1,1228.67,1581.05Z" transform="translate(-915.02 -1487.38)"/><path d="M1562.3,1492c-32-1.45-59.16,23.06-60.68,54.74s23.17,58.56,55.16,60,59.16-23.06,60.68-54.74S1594.28,1493.47,1562.3,1492Zm-4.42,91.89a34.55,34.55,0,1,1,36.5-32.92A34.6,34.6,0,0,1,1557.88,1583.9Z" transform="translate(-915.02 -1487.38)"/><path d="M1559.48,1608.39c-.92,0-1.84,0-2.77-.06a59.34,59.34,0,0,1-41.24-19.18,58.24,58.24,0,0,1-15.43-42.47c1.57-32.5,29.54-57.71,62.33-56.23a59.34,59.34,0,0,1,41.24,19.18A58.19,58.19,0,0,1,1619,1552.1C1617.52,1583.68,1591.07,1608.39,1559.48,1608.39Zm.12-114.87c-29.92,0-55,23.4-56.4,53.31a55.12,55.12,0,0,0,14.6,40.22,56.17,56.17,0,0,0,39,18.15c.88,0,1.76.06,2.62.06,29.93,0,55-23.4,56.41-53.31a55.09,55.09,0,0,0-14.61-40.22,56.13,56.13,0,0,0-39-18.15h0C1561.35,1493.54,1560.47,1493.52,1559.6,1493.52Zm-.1,92c-.56,0-1.12,0-1.69,0a36.29,36.29,0,0,1-25.24-11.73,35.62,35.62,0,0,1-9.45-26,36.58,36.58,0,0,1,63.39-22.68,35.61,35.61,0,0,1,9.44,26A36.42,36.42,0,0,1,1559.5,1585.5Zm.08-69.1a33.27,33.27,0,0,0-33.3,31.48,32.51,32.51,0,0,0,8.62,23.74,33.4,33.4,0,0,0,57.9-20.72,32.56,32.56,0,0,0-8.62-23.74,33.12,33.12,0,0,0-23-10.72C1560.61,1516.42,1560.09,1516.4,1559.58,1516.4Z" transform="translate(-915.02 -1487.38)"/><path class="cls-97" d="M1560.35,1496.61c-28.94-1.34-53.52,21.26-54.9,50.49s21,54,49.91,55.35,53.51-21.26,54.89-50.49S1589.29,1498,1560.35,1496.61Zm-4,84.75a31.87,31.87,0,1,1,33-30.37A31.68,31.68,0,0,1,1556.35,1581.36Z" transform="translate(-915.02 -1487.38)"/><ellipse class="cls-98" cx="1757.59" cy="1588.8" rx="1.2" ry="2.48" transform="translate(-1220.74 -1063.12) rotate(-12.67)"/><ellipse class="cls-98" cx="382.35" cy="147.4" rx="0.86" ry="2.3"/><text class="cls-101" transform="matrix(0.92, -0.02, 0.02, 1, 285.19, 99.66)">o</text><path class="cls-100" d="M1227.09,1518.15a28.09,28.09,0,0,1,12.14,2.43,30.91,30.91,0,0,1,10.1,7.18,36.26,36.26,0,0,1,6.93,10.78,35.29,35.29,0,0,1,2.75,13.17,36.77,36.77,0,0,1-2.17,13.43,34.32,34.32,0,0,1-6.49,11.06,32.06,32.06,0,0,1-9.8,7.52,28.82,28.82,0,0,1-24.27.48,32,32,0,0,1-10.1-7.11,34.35,34.35,0,0,1-6.93-10.79,36.57,36.57,0,0,1-2.7-13.34,35.94,35.94,0,0,1,2.17-13.37,34.17,34.17,0,0,1,6.49-11,31.9,31.9,0,0,1,9.8-7.52A28,28,0,0,1,1227.09,1518.15Zm.18,8.63a20.88,20.88,0,0,0-9.07,2.2,24.21,24.21,0,0,0-7.3,5.61,25.81,25.81,0,0,0-4.86,8.24,27.92,27.92,0,0,0,.4,19.93,26.35,26.35,0,0,0,5.19,8,23.77,23.77,0,0,0,7.52,5.37,21.46,21.46,0,0,0,18.2-.37,23.78,23.78,0,0,0,7.3-5.66,26.21,26.21,0,0,0,4.86-8.24,27.76,27.76,0,0,0-.4-19.88,26.45,26.45,0,0,0-5.18-8,23.88,23.88,0,0,0-7.57-5.36A20.85,20.85,0,0,0,1227.27,1526.78Z" transform="translate(-915.02 -1487.38)"/><text class="cls-102" transform="translate(613.63 100.17) rotate(-1.15) scale(0.91 1)">o</text><path class="cls-100" d="M1555.52,1518.77a28.06,28.06,0,0,1,12.14,2.43,31,31,0,0,1,10.1,7.17,36.31,36.31,0,0,1,6.93,10.79,35.29,35.29,0,0,1,2.75,13.17,36.59,36.59,0,0,1-2.17,13.43,34.42,34.42,0,0,1-6.49,11.06,32.06,32.06,0,0,1-9.8,7.52,28.82,28.82,0,0,1-24.27.48,32,32,0,0,1-10.1-7.12,34.24,34.24,0,0,1-6.93-10.79,36.48,36.48,0,0,1-2.7-13.33,36,36,0,0,1,2.17-13.38,34.38,34.38,0,0,1,6.49-11,32.06,32.06,0,0,1,9.8-7.52A28,28,0,0,1,1555.52,1518.77Zm.18,8.62a20.81,20.81,0,0,0-9.06,2.21,24.13,24.13,0,0,0-7.31,5.61,25.7,25.7,0,0,0-4.86,8.24,27.92,27.92,0,0,0,.4,19.93,26.47,26.47,0,0,0,5.19,8,23.77,23.77,0,0,0,7.52,5.37,21.56,21.56,0,0,0,18.2-.37,23.78,23.78,0,0,0,7.3-5.66,26.32,26.32,0,0,0,4.86-8.24,27.76,27.76,0,0,0-.4-19.88,26.45,26.45,0,0,0-5.18-8,23.64,23.64,0,0,0-7.57-5.37A21,21,0,0,0,1555.7,1527.39Z" transform="translate(-915.02 -1487.38)"/><g class="cls-103"><g class="cls-104"><path class="cls-98" d="M1241,1501.66a77.38,77.38,0,0,1,9.85,4.93,82.17,82.17,0,0,1,8.75,6,52.42,52.42,0,0,1,7.16,7,27.75,27.75,0,0,1,4.55,8,35.35,35.35,0,0,0-2.33-4l-.65-1a6.82,6.82,0,0,0-.7-1l-1.52-1.85a58.2,58.2,0,0,0-7.23-6.83,92.39,92.39,0,0,0-8.5-6c-1.49-1-3-1.87-4.6-2.76S1242.67,1502.49,1241,1501.66Z" transform="translate(-915.02 -1487.38)"/><path class="cls-98" d="M1241.08,1501.6a54.45,54.45,0,0,1,5.4,2l5,2.48a75.4,75.4,0,0,1,9.16,5.88,47,47,0,0,1,7.24,7.21,31.22,31.22,0,0,1,2.5,4.06,19.79,19.79,0,0,1,1.49,4.3v0c.09.22-.1.46-.39.5a.82.82,0,0,1-.45,0,.54.54,0,0,1-.27-.22v0h0a31.73,31.73,0,0,0-4.82-7.82,55.1,55.1,0,0,0-7.1-7,81.82,81.82,0,0,0-8.52-6.13q-2.28-1.41-4.68-2.72c-.79-.44-1.6-.87-2.42-1.28l-1.24-.61-.63-.3-.31-.15s-.12,0-.12-.1S1241,1501.58,1241.08,1501.6Zm0,0c-.06,0-.13,0-.13.05s.07.07.12.1l.32.14.63.3,1.25.6,2.45,1.25q2.41,1.29,4.72,2.69a90.89,90.89,0,0,1,8.79,6,56.52,56.52,0,0,1,7.45,6.89,32.79,32.79,0,0,1,5,7.94v0a.35.35,0,0,0-.17-.15.56.56,0,0,0-.32,0c-.2,0-.33.2-.28.35v0a19.81,19.81,0,0,0-1.39-4.19,29.12,29.12,0,0,0-2.39-4,46.39,46.39,0,0,0-6.85-7.23,70.23,70.23,0,0,0-8.88-6l-5-2.52A55.51,55.51,0,0,0,1241.08,1501.6Z" transform="translate(-915.02 -1487.38)"/></g><ellipse class="cls-98" cx="1272.62" cy="1532.84" rx="1.45" ry="2.32" transform="translate(-1359.23 -965.3) rotate(-19.81)"/></g><g class="cls-103"><g class="cls-104"><path class="cls-98" d="M1569,1502.66a77.38,77.38,0,0,1,9.85,4.93,82.17,82.17,0,0,1,8.75,6,52.42,52.42,0,0,1,7.16,7,27.75,27.75,0,0,1,4.55,8,35.35,35.35,0,0,0-2.33-4l-.65-1a6.82,6.82,0,0,0-.7-1l-1.52-1.85a58.2,58.2,0,0,0-7.23-6.83,92.39,92.39,0,0,0-8.5-6c-1.49-1-3-1.87-4.6-2.76S1570.67,1503.49,1569,1502.66Z" transform="translate(-915.02 -1487.38)"/><path class="cls-98" d="M1569.08,1502.6a54.45,54.45,0,0,1,5.4,2l5,2.48a75.4,75.4,0,0,1,9.16,5.88,47,47,0,0,1,7.24,7.21,31.22,31.22,0,0,1,2.5,4.06,19.79,19.79,0,0,1,1.49,4.3v0c.09.22-.1.46-.39.5a.82.82,0,0,1-.45,0,.54.54,0,0,1-.27-.22v0h0a31.73,31.73,0,0,0-4.82-7.82,55.1,55.1,0,0,0-7.1-7,81.82,81.82,0,0,0-8.52-6.13q-2.28-1.41-4.68-2.72c-.79-.44-1.6-.87-2.42-1.28l-1.24-.61-.63-.3-.31-.15s-.12,0-.12-.1S1569,1502.58,1569.08,1502.6Zm0,0c-.06,0-.13,0-.13.05s.07.07.12.1l.32.14.63.3,1.25.6,2.45,1.25q2.41,1.29,4.72,2.69a90.89,90.89,0,0,1,8.79,6,56.52,56.52,0,0,1,7.45,6.89,32.79,32.79,0,0,1,5,7.94v0a.35.35,0,0,0-.17-.15.56.56,0,0,0-.32,0c-.2,0-.33.2-.28.35v0a19.81,19.81,0,0,0-1.39-4.19,29.12,29.12,0,0,0-2.39-4,46.39,46.39,0,0,0-6.85-7.23,70.23,70.23,0,0,0-8.88-6l-5-2.52A55.51,55.51,0,0,0,1569.08,1502.6Z" transform="translate(-915.02 -1487.38)"/></g><ellipse class="cls-98" cx="1600.62" cy="1533.84" rx="1.45" ry="2.32" transform="translate(-1340.15 -854.07) rotate(-19.81)"/></g></g></g></svg>
